<svg viewBox="0 0 960 520" xmlns="http://www.w3.org/2000/svg" font-family="system-ui, sans-serif">
  <!-- Background -->
  <rect width="960" height="520" fill="#1a1a2e"/>

  <!-- Header Bar - Full Width -->
  <rect x="0" y="0" width="960" height="40" fill="#16213e"/>

  <!-- Hamburger Menu -->
  <text x="20" y="26" fill="#eee" font-size="16">☰</text>

  <text x="60" y="26" fill="#eee" font-size="14" font-weight="bold">SquareHead</text>

  <!-- Menu items spanning full width -->
  <text x="180" y="26" fill="#e94560" font-size="12" font-weight="bold">Invoices</text>
  <text x="260" y="26" fill="#aaa" font-size="12">Bills</text>
  <text x="310" y="26" fill="#aaa" font-size="12">Ledger</text>
  <text x="380" y="26" fill="#aaa" font-size="12">Reports</text>

  <!-- Search and user -->
  <rect x="500" y="10" width="180" height="22" rx="4" fill="#0f3460"/>
  <text x="515" y="25" fill="#888" font-size="11">Search...</text>
  <text x="880" y="26" fill="#eee" font-size="12">🔔  👤 Mark</text>

  <!-- Icon Rail - Always Visible (thin strip on far left) -->
  <rect x="0" y="40" width="48" height="480" fill="#0f1525"/>

  <!-- App icons in rail -->
  <rect x="8" y="55" width="32" height="32" rx="6" fill="#0f3460"/>
  <text x="16" y="78" fill="#eee" font-size="14">📊</text>

  <rect x="8" y="95" width="32" height="32" rx="6" fill="#e94560"/>
  <text x="16" y="118" fill="#fff" font-size="14">💰</text>

  <rect x="8" y="135" width="32" height="32" rx="6" fill="#0f3460"/>
  <text x="16" y="158" fill="#eee" font-size="14">🧪</text>

  <rect x="8" y="175" width="32" height="32" rx="6" fill="#0f3460"/>
  <text x="16" y="198" fill="#eee" font-size="14">📋</text>

  <!-- Expand arrow at bottom of rail -->
  <text x="18" y="490" fill="#666" font-size="12">▶</text>

  <!-- Settings at bottom of rail -->
  <text x="16" y="460" fill="#888" font-size="14">⚙️</text>

  <!-- Divider after rail -->
  <line x1="48" y1="40" x2="48" y2="520" stroke="#333" stroke-width="1"/>

  <!-- Left Pane - App Content (Invoice Form) -->
  <rect x="48" y="40" width="280" height="480" fill="#16213e"/>

  <!-- Tab Bar -->
  <rect x="48" y="40" width="280" height="26" fill="#0f1525"/>

  <!-- Tab 1 - All Invoices (inactive) -->
  <rect x="52" y="44" width="80" height="18" rx="3" fill="#16213e"/>
  <text x="58" y="57" fill="#888" font-size="8">All Invoices</text>
  <text x="122" y="57" fill="#666" font-size="7">×</text>

  <!-- Tab 2 - INV-2026-0042 (active) -->
  <rect x="136" y="44" width="90" height="18" rx="3" fill="#0f3460"/>
  <text x="142" y="57" fill="#eee" font-size="8">INV-2026-0042</text>
  <text x="216" y="57" fill="#888" font-size="7">×</text>

  <!-- Tab 3 - New tab button -->
  <rect x="230" y="44" width="20" height="18" rx="3" fill="transparent"/>
  <text x="235" y="57" fill="#666" font-size="10">+</text>

  <!-- Divider below tab bar -->
  <line x1="48" y1="66" x2="328" y2="66" stroke="#333" stroke-width="1"/>

  <!-- Breadcrumb Bar -->
  <rect x="48" y="66" width="280" height="20" fill="#16213e"/>
  <text x="56" y="80" fill="#888" font-size="8">🏠</text>
  <text x="68" y="80" fill="#666" font-size="8">›</text>
  <text x="76" y="80" fill="#888" font-size="8">Invoices</text>
  <text x="112" y="80" fill="#666" font-size="8">›</text>
  <text x="120" y="80" fill="#e94560" font-size="8">INV-2026-0042</text>

  <!-- Divider below breadcrumb -->
  <line x1="48" y1="86" x2="328" y2="86" stroke="#333" stroke-width="1"/>

  <!-- App Action Bar (sticky header with buttons) -->
  <rect x="48" y="86" width="280" height="34" fill="#0f3460"/>
  <text x="58" y="108" fill="#eee" font-size="10" font-weight="bold">Edit Invoice</text>

  <!-- Action buttons in header bar -->
  <rect x="168" y="92" width="45" height="22" rx="4" fill="#16213e"/>
  <text x="176" y="107" fill="#aaa" font-size="9">Cancel</text>

  <rect x="218" y="92" width="38" height="22" rx="4" fill="#e94560"/>
  <text x="225" y="107" fill="#fff" font-size="9">Draft</text>

  <rect x="261" y="92" width="42" height="22" rx="4" fill="#4ade80"/>
  <text x="270" y="107" fill="#000" font-size="9">Send</text>

  <!-- Divider below action bar -->
  <line x1="48" y1="120" x2="328" y2="120" stroke="#333" stroke-width="1"/>

  <!-- Invoice Form (scrollable content area) - shifted down -->
  <text x="58" y="140" fill="#aaa" font-size="10">Customer</text>
  <rect x="58" y="147" width="255" height="24" rx="4" fill="#0f3460"/>
  <text x="66" y="163" fill="#eee" font-size="10">Acme Corporation</text>

  <text x="58" y="186" fill="#aaa" font-size="10">Invoice Number</text>
  <rect x="58" y="193" width="255" height="24" rx="4" fill="#0f3460"/>
  <text x="66" y="209" fill="#666" font-size="10">INV-2026-0042</text>

  <text x="58" y="232" fill="#aaa" font-size="10">Amount</text>
  <rect x="58" y="239" width="125" height="24" rx="4" fill="#0f3460"/>
  <text x="66" y="255" fill="#eee" font-size="10">$4,500.00</text>

  <text x="190" y="232" fill="#aaa" font-size="10">Due Date</text>
  <rect x="190" y="239" width="123" height="24" rx="4" fill="#0f3460"/>
  <text x="198" y="255" fill="#eee" font-size="10">2026-02-15</text>

  <text x="58" y="278" fill="#aaa" font-size="10">Line Items</text>
  <rect x="58" y="285" width="255" height="65" rx="4" fill="#0f3460"/>
  <text x="66" y="300" fill="#888" font-size="9">Item</text>
  <text x="165" y="300" fill="#888" font-size="9">Qty</text>
  <text x="210" y="300" fill="#888" font-size="9">Price</text>
  <line x1="66" y1="306" x2="305" y2="306" stroke="#333" stroke-width="1"/>
  <text x="66" y="320" fill="#eee" font-size="9">Consulting</text>
  <text x="165" y="320" fill="#eee" font-size="9">10h</text>
  <text x="210" y="320" fill="#eee" font-size="9">$3,000</text>
  <text x="66" y="336" fill="#eee" font-size="9">Support</text>
  <text x="165" y="336" fill="#eee" font-size="9">5h</text>
  <text x="210" y="336" fill="#eee" font-size="9">$1,500</text>

  <text x="58" y="370" fill="#aaa" font-size="10">Notes</text>
  <rect x="58" y="377" width="255" height="40" rx="4" fill="#0f3460"/>
  <text x="66" y="393" fill="#666" font-size="9">Add notes...</text>

  <!-- Scroll indicator -->
  <rect x="318" y="130" width="4" height="50" rx="2" fill="#333"/>
  <rect x="318" y="130" width="4" height="20" rx="2" fill="#666"/>

  <!-- Divider -->
  <line x1="328" y1="40" x2="328" y2="520" stroke="#333" stroke-width="1"/>

  <!-- Center Pane - Chat -->
  <rect x="328" y="40" width="350" height="480" fill="#1a1a2e"/>

  <!-- Chat Area -->
  <text x="345" y="70" fill="#888" font-size="10" font-weight="bold">AGENT CHAT</text>

  <!-- User Message -->
  <rect x="430" y="85" width="230" height="40" rx="8" fill="#0f3460"/>
  <text x="445" y="110" fill="#eee" font-size="11">Create an invoice for Acme Corp</text>

  <!-- Agent Message -->
  <rect x="345" y="135" width="300" height="55" rx="8" fill="#16213e"/>
  <text x="360" y="155" fill="#eee" font-size="11">I've started a new invoice for Acme</text>
  <text x="360" y="170" fill="#eee" font-size="11">Corporation. What services to include?</text>

  <!-- User Message 2 -->
  <rect x="400" y="200" width="260" height="40" rx="8" fill="#0f3460"/>
  <text x="415" y="225" fill="#eee" font-size="11">10 hours consulting, 5 hours support</text>

  <!-- Agent Message 2 -->
  <rect x="345" y="250" width="310" height="70" rx="8" fill="#16213e"/>
  <text x="360" y="270" fill="#eee" font-size="11">Added those line items. Total is $4,500.</text>
  <text x="360" y="285" fill="#eee" font-size="11">I've also pulled in a revenue chart for</text>
  <text x="360" y="300" fill="#eee" font-size="11">Acme's history →</text>

  <!-- User Message 3 -->
  <rect x="450" y="330" width="210" height="40" rx="8" fill="#0f3460"/>
  <text x="465" y="355" fill="#eee" font-size="11">Looks good, send it to them</text>

  <!-- Agent Message 3 -->
  <rect x="345" y="380" width="260" height="40" rx="8" fill="#16213e"/>
  <text x="360" y="405" fill="#eee" font-size="11">✓ Invoice sent to accounts@acme.com</text>

  <!-- Input Area -->
  <rect x="345" y="460" width="315" height="40" rx="8" fill="#0f3460" stroke="#333" stroke-width="1"/>
  <text x="365" y="485" fill="#666" font-size="12">Message...</text>
  <text x="620" y="485" fill="#888" font-size="14">📎  ➤</text>

  <!-- Divider -->
  <line x1="678" y1="40" x2="678" y2="520" stroke="#333" stroke-width="1"/>

  <!-- Right Pane - Artifacts -->
  <rect x="678" y="40" width="282" height="480" fill="#16213e"/>
  <text x="695" y="70" fill="#888" font-size="10" font-weight="bold">ARTIFACTS</text>

  <!-- Artifact 1 - Customer History Chart -->
  <rect x="693" y="85" width="252" height="160" rx="6" fill="#0f3460"/>
  <text x="708" y="105" fill="#eee" font-size="11" font-weight="bold">Acme Corp - Revenue History</text>
  <text x="708" y="120" fill="#888" font-size="9">Last 12 months</text>

  <!-- Simple line chart -->
  <polyline points="720,200 750,180 780,190 810,160 840,170 870,140 900,130"
            fill="none" stroke="#e94560" stroke-width="2"/>
  <circle cx="720" cy="200" r="3" fill="#e94560"/>
  <circle cx="750" cy="180" r="3" fill="#e94560"/>
  <circle cx="780" cy="190" r="3" fill="#e94560"/>
  <circle cx="810" cy="160" r="3" fill="#e94560"/>
  <circle cx="840" cy="170" r="3" fill="#e94560"/>
  <circle cx="870" cy="140" r="3" fill="#e94560"/>
  <circle cx="900" cy="130" r="3" fill="#e94560"/>

  <!-- X-axis labels -->
  <text x="715" y="225" fill="#888" font-size="8">Jul</text>
  <text x="745" y="225" fill="#888" font-size="8">Aug</text>
  <text x="775" y="225" fill="#888" font-size="8">Sep</text>
  <text x="805" y="225" fill="#888" font-size="8">Oct</text>
  <text x="835" y="225" fill="#888" font-size="8">Nov</text>
  <text x="865" y="225" fill="#888" font-size="8">Dec</text>
  <text x="895" y="225" fill="#888" font-size="8">Jan</text>

  <!-- Artifact 2 - Invoice Preview -->
  <rect x="693" y="260" width="252" height="140" rx="6" fill="#0f3460"/>
  <text x="708" y="280" fill="#eee" font-size="11" font-weight="bold">Invoice Preview</text>

  <rect x="708" y="290" width="222" height="95" rx="4" fill="#1a1a2e"/>
  <text x="720" y="310" fill="#888" font-size="9">TO: Acme Corporation</text>
  <text x="720" y="325" fill="#888" font-size="9">INV-2026-0042</text>
  <line x1="720" y1="335" x2="918" y2="335" stroke="#333" stroke-width="1"/>
  <text x="720" y="350" fill="#eee" font-size="9">Consulting (10h)</text>
  <text x="870" y="350" fill="#eee" font-size="9">$3,000</text>
  <text x="720" y="365" fill="#eee" font-size="9">Support (5h)</text>
  <text x="870" y="365" fill="#eee" font-size="9">$1,500</text>
  <line x1="720" y1="372" x2="918" y2="372" stroke="#333" stroke-width="1"/>
  <text x="720" y="385" fill="#eee" font-size="10" font-weight="bold">Total</text>
  <text x="860" y="385" fill="#4ade80" font-size="10" font-weight="bold">$4,500</text>

  <!-- Artifact tabs indicator -->
  <rect x="693" y="415" width="60" height="24" rx="4" fill="#e94560"/>
  <text x="705" y="432" fill="#fff" font-size="9">Chart</text>
  <rect x="758" y="415" width="60" height="24" rx="4" fill="#0f3460"/>
  <text x="765" y="432" fill="#aaa" font-size="9">Preview</text>

  <!-- Collapse indicator -->
  <text x="920" y="500" fill="#666" font-size="10">▶</text>

  <!-- Annotation: Icon Rail -->
  <rect x="5" y="505" width="38" height="12" fill="#e94560" opacity="0.3"/>
  <text x="8" y="513" fill="#e94560" font-size="7">RAIL</text>

  <rect x="140" y="505" width="38" height="12" fill="#f59e0b" opacity="0.3"/>
  <text x="143" y="513" fill="#f59e0b" font-size="7">TABS</text>
</svg>
