<svg viewBox="0 0 1000 580" xmlns="http://www.w3.org/2000/svg" font-family="system-ui, sans-serif">
  <!-- Extended canvas for annotations -->
  <rect width="1000" height="580" fill="#1a1a2e"/>

  <!-- Header Bar - Full Width -->
  <rect x="0" y="40" width="960" height="40" fill="#16213e"/>

  <!-- Hamburger Menu -->
  <text x="20" y="66" fill="#eee" font-size="16">☰</text>

  <text x="60" y="66" fill="#eee" font-size="14" font-weight="bold">SquareHead</text>

  <!-- Menu items spanning full width -->
  <text x="180" y="66" fill="#e94560" font-size="12" font-weight="bold">Invoices</text>
  <text x="260" y="66" fill="#aaa" font-size="12">Bills</text>
  <text x="310" y="66" fill="#aaa" font-size="12">Ledger</text>
  <text x="380" y="66" fill="#aaa" font-size="12">Reports</text>

  <!-- Search and user -->
  <rect x="500" y="50" width="180" height="22" rx="4" fill="#0f3460"/>
  <text x="515" y="65" fill="#888" font-size="11">Search...</text>
  <text x="880" y="66" fill="#eee" font-size="12">🔔  👤 Mark</text>

  <!-- Icon Rail - Always Visible (thin strip on far left) -->
  <rect x="0" y="80" width="48" height="480" fill="#0f1525"/>

  <!-- App icons in rail -->
  <rect x="8" y="95" width="32" height="32" rx="6" fill="#0f3460"/>
  <text x="16" y="118" fill="#eee" font-size="14">📊</text>

  <rect x="8" y="135" width="32" height="32" rx="6" fill="#e94560"/>
  <text x="16" y="158" fill="#fff" font-size="14">💰</text>

  <rect x="8" y="175" width="32" height="32" rx="6" fill="#0f3460"/>
  <text x="16" y="198" fill="#eee" font-size="14">🧪</text>

  <rect x="8" y="215" width="32" height="32" rx="6" fill="#0f3460"/>
  <text x="16" y="238" fill="#eee" font-size="14">📋</text>

  <!-- Expand arrow at bottom of rail -->
  <text x="18" y="530" fill="#666" font-size="12">▶</text>

  <!-- Settings at bottom of rail -->
  <text x="16" y="500" fill="#888" font-size="14">⚙️</text>

  <!-- Divider after rail -->
  <line x1="48" y1="80" x2="48" y2="560" stroke="#333" stroke-width="1"/>

  <!-- Left Pane - App Content (Invoice Form) -->
  <rect x="48" y="80" width="280" height="480" fill="#16213e"/>

  <!-- Tab Bar -->
  <rect x="48" y="80" width="280" height="26" fill="#0f1525"/>

  <!-- Tab 1 - All Invoices (inactive) -->
  <rect x="52" y="84" width="80" height="18" rx="3" fill="#16213e"/>
  <text x="58" y="97" fill="#888" font-size="8">All Invoices</text>
  <text x="122" y="97" fill="#666" font-size="7">×</text>

  <!-- Tab 2 - INV-2026-0042 (active) -->
  <rect x="136" y="84" width="90" height="18" rx="3" fill="#0f3460"/>
  <text x="142" y="97" fill="#eee" font-size="8">INV-2026-0042</text>
  <text x="216" y="97" fill="#888" font-size="7">×</text>

  <!-- Tab 3 - New tab button -->
  <rect x="230" y="84" width="20" height="18" rx="3" fill="transparent"/>
  <text x="235" y="97" fill="#666" font-size="10">+</text>

  <!-- Divider below tab bar -->
  <line x1="48" y1="106" x2="328" y2="106" stroke="#333" stroke-width="1"/>

  <!-- Breadcrumb Bar -->
  <rect x="48" y="106" width="280" height="20" fill="#16213e"/>
  <text x="56" y="120" fill="#888" font-size="8">🏠</text>
  <text x="68" y="120" fill="#666" font-size="8">›</text>
  <text x="76" y="120" fill="#888" font-size="8">Invoices</text>
  <text x="112" y="120" fill="#666" font-size="8">›</text>
  <text x="120" y="120" fill="#e94560" font-size="8">INV-2026-0042</text>

  <!-- Divider below breadcrumb -->
  <line x1="48" y1="126" x2="328" y2="126" stroke="#333" stroke-width="1"/>

  <!-- App Action Bar (sticky header with buttons) -->
  <rect x="48" y="126" width="280" height="34" fill="#0f3460"/>
  <text x="58" y="148" fill="#eee" font-size="10" font-weight="bold">Edit Invoice</text>

  <!-- Action buttons in header bar -->
  <rect x="168" y="132" width="45" height="22" rx="4" fill="#16213e"/>
  <text x="176" y="147" fill="#aaa" font-size="9">Cancel</text>

  <rect x="218" y="132" width="38" height="22" rx="4" fill="#e94560"/>
  <text x="225" y="147" fill="#fff" font-size="9">Draft</text>

  <rect x="261" y="132" width="42" height="22" rx="4" fill="#4ade80"/>
  <text x="270" y="147" fill="#000" font-size="9">Send</text>

  <!-- Divider below action bar -->
  <line x1="48" y1="160" x2="328" y2="160" stroke="#333" stroke-width="1"/>

  <!-- Invoice Form (scrollable content area) -->
  <text x="58" y="180" fill="#aaa" font-size="10">Customer</text>
  <rect x="58" y="187" width="255" height="24" rx="4" fill="#0f3460"/>
  <text x="66" y="203" fill="#eee" font-size="10">Acme Corporation</text>

  <text x="58" y="226" fill="#aaa" font-size="10">Invoice Number</text>
  <rect x="58" y="233" width="255" height="24" rx="4" fill="#0f3460"/>
  <text x="66" y="249" fill="#666" font-size="10">INV-2026-0042</text>

  <text x="58" y="272" fill="#aaa" font-size="10">Amount</text>
  <rect x="58" y="279" width="125" height="24" rx="4" fill="#0f3460"/>
  <text x="66" y="295" fill="#eee" font-size="10">$4,500.00</text>

  <text x="190" y="272" fill="#aaa" font-size="10">Due Date</text>
  <rect x="190" y="279" width="123" height="24" rx="4" fill="#0f3460"/>
  <text x="198" y="295" fill="#eee" font-size="10">2026-02-15</text>

  <text x="58" y="318" fill="#aaa" font-size="10">Line Items</text>
  <rect x="58" y="325" width="255" height="65" rx="4" fill="#0f3460"/>
  <text x="66" y="340" fill="#888" font-size="9">Item</text>
  <text x="165" y="340" fill="#888" font-size="9">Qty</text>
  <text x="210" y="340" fill="#888" font-size="9">Price</text>
  <line x1="66" y1="346" x2="305" y2="346" stroke="#333" stroke-width="1"/>
  <text x="66" y="360" fill="#eee" font-size="9">Consulting</text>
  <text x="165" y="360" fill="#eee" font-size="9">10h</text>
  <text x="210" y="360" fill="#eee" font-size="9">$3,000</text>
  <text x="66" y="376" fill="#eee" font-size="9">Support</text>
  <text x="165" y="376" fill="#eee" font-size="9">5h</text>
  <text x="210" y="376" fill="#eee" font-size="9">$1,500</text>

  <text x="58" y="410" fill="#aaa" font-size="10">Notes</text>
  <rect x="58" y="417" width="255" height="40" rx="4" fill="#0f3460"/>
  <text x="66" y="433" fill="#666" font-size="9">Add notes...</text>

  <!-- Scroll indicator -->
  <rect x="318" y="170" width="4" height="50" rx="2" fill="#333"/>
  <rect x="318" y="170" width="4" height="20" rx="2" fill="#666"/>

  <!-- Divider -->
  <line x1="328" y1="80" x2="328" y2="560" stroke="#333" stroke-width="1"/>

  <!-- Center Pane - Chat -->
  <rect x="328" y="80" width="350" height="480" fill="#1a1a2e"/>

  <!-- Chat Area -->
  <text x="345" y="110" fill="#888" font-size="10" font-weight="bold">AGENT CHAT</text>

  <!-- User Message -->
  <rect x="430" y="125" width="230" height="40" rx="8" fill="#0f3460"/>
  <text x="445" y="150" fill="#eee" font-size="11">Create an invoice for Acme Corp</text>

  <!-- Agent Message -->
  <rect x="345" y="175" width="300" height="55" rx="8" fill="#16213e"/>
  <text x="360" y="195" fill="#eee" font-size="11">I've started a new invoice for Acme</text>
  <text x="360" y="210" fill="#eee" font-size="11">Corporation. What services to include?</text>

  <!-- User Message 2 -->
  <rect x="400" y="240" width="260" height="40" rx="8" fill="#0f3460"/>
  <text x="415" y="265" fill="#eee" font-size="11">10 hours consulting, 5 hours support</text>

  <!-- Agent Message 2 -->
  <rect x="345" y="290" width="310" height="70" rx="8" fill="#16213e"/>
  <text x="360" y="310" fill="#eee" font-size="11">Added those line items. Total is $4,500.</text>
  <text x="360" y="325" fill="#eee" font-size="11">I've also pulled in a revenue chart for</text>
  <text x="360" y="340" fill="#eee" font-size="11">Acme's history →</text>

  <!-- User Message 3 -->
  <rect x="450" y="370" width="210" height="40" rx="8" fill="#0f3460"/>
  <text x="465" y="395" fill="#eee" font-size="11">Looks good, send it to them</text>

  <!-- Agent Message 3 -->
  <rect x="345" y="420" width="260" height="40" rx="8" fill="#16213e"/>
  <text x="360" y="445" fill="#eee" font-size="11">✓ Invoice sent to accounts@acme.com</text>

  <!-- Input Area -->
  <rect x="345" y="500" width="315" height="40" rx="8" fill="#0f3460" stroke="#333" stroke-width="1"/>
  <text x="365" y="525" fill="#666" font-size="12">Message...</text>
  <text x="620" y="525" fill="#888" font-size="14">📎  ➤</text>

  <!-- Divider -->
  <line x1="678" y1="80" x2="678" y2="560" stroke="#333" stroke-width="1"/>

  <!-- Right Pane - Artifacts -->
  <rect x="678" y="80" width="282" height="480" fill="#16213e"/>
  <text x="695" y="110" fill="#888" font-size="10" font-weight="bold">ARTIFACTS</text>

  <!-- Artifact 1 - Customer History Chart -->
  <rect x="693" y="125" width="252" height="160" rx="6" fill="#0f3460"/>
  <text x="708" y="145" fill="#eee" font-size="11" font-weight="bold">Acme Corp - Revenue History</text>
  <text x="708" y="160" fill="#888" font-size="9">Last 12 months</text>

  <!-- Simple line chart -->
  <polyline points="720,240 750,220 780,230 810,200 840,210 870,180 900,170"
            fill="none" stroke="#e94560" stroke-width="2"/>
  <circle cx="720" cy="240" r="3" fill="#e94560"/>
  <circle cx="750" cy="220" r="3" fill="#e94560"/>
  <circle cx="780" cy="230" r="3" fill="#e94560"/>
  <circle cx="810" cy="200" r="3" fill="#e94560"/>
  <circle cx="840" cy="210" r="3" fill="#e94560"/>
  <circle cx="870" cy="180" r="3" fill="#e94560"/>
  <circle cx="900" cy="170" r="3" fill="#e94560"/>

  <!-- X-axis labels -->
  <text x="715" y="265" fill="#888" font-size="8">Jul</text>
  <text x="745" y="265" fill="#888" font-size="8">Aug</text>
  <text x="775" y="265" fill="#888" font-size="8">Sep</text>
  <text x="805" y="265" fill="#888" font-size="8">Oct</text>
  <text x="835" y="265" fill="#888" font-size="8">Nov</text>
  <text x="865" y="265" fill="#888" font-size="8">Dec</text>
  <text x="895" y="265" fill="#888" font-size="8">Jan</text>

  <!-- Artifact 2 - Invoice Preview -->
  <rect x="693" y="300" width="252" height="140" rx="6" fill="#0f3460"/>
  <text x="708" y="320" fill="#eee" font-size="11" font-weight="bold">Invoice Preview</text>

  <rect x="708" y="330" width="222" height="95" rx="4" fill="#1a1a2e"/>
  <text x="720" y="350" fill="#888" font-size="9">TO: Acme Corporation</text>
  <text x="720" y="365" fill="#888" font-size="9">INV-2026-0042</text>
  <line x1="720" y1="375" x2="918" y2="375" stroke="#333" stroke-width="1"/>
  <text x="720" y="390" fill="#eee" font-size="9">Consulting (10h)</text>
  <text x="870" y="390" fill="#eee" font-size="9">$3,000</text>
  <text x="720" y="405" fill="#eee" font-size="9">Support (5h)</text>
  <text x="870" y="405" fill="#eee" font-size="9">$1,500</text>
  <line x1="720" y1="412" x2="918" y2="412" stroke="#333" stroke-width="1"/>
  <text x="720" y="425" fill="#eee" font-size="10" font-weight="bold">Total</text>
  <text x="860" y="425" fill="#4ade80" font-size="10" font-weight="bold">$4,500</text>

  <!-- Artifact tabs indicator -->
  <rect x="693" y="455" width="60" height="24" rx="4" fill="#e94560"/>
  <text x="705" y="472" fill="#fff" font-size="9">Chart</text>
  <rect x="758" y="455" width="60" height="24" rx="4" fill="#0f3460"/>
  <text x="765" y="472" fill="#aaa" font-size="9">Preview</text>

  <!-- Collapse indicator -->
  <text x="920" y="540" fill="#666" font-size="10">▶</text>

  <!-- ==================== HANDWRITTEN ANNOTATIONS ==================== -->

  <!-- Annotation 1: App-Context Aware Chat -->
  <!-- Handwritten text at top -->
  <text x="380" y="25" fill="#4ade80" font-size="16" font-family="'Brush Script MT', 'Segoe Script', cursive" font-style="italic">
    App-context aware chat!
  </text>
  <!-- Curved arrow from text to chat pane -->
  <path d="M 500 28 Q 520 50, 500 75" fill="none" stroke="#4ade80" stroke-width="2" stroke-linecap="round"/>
  <!-- Arrow head -->
  <path d="M 500 75 L 495 65 M 500 75 L 508 68" fill="none" stroke="#4ade80" stroke-width="2" stroke-linecap="round"/>

  <!-- Annotation 2: Artifacts pane opens on demand -->
  <!-- Handwritten text at top right -->
  <text x="750" y="25" fill="#f59e0b" font-size="14" font-family="'Brush Script MT', 'Segoe Script', cursive" font-style="italic">
    Opens on demand!
  </text>
  <!-- Curved arrow pointing to artifacts pane -->
  <path d="M 820 28 Q 850 50, 820 75" fill="none" stroke="#f59e0b" stroke-width="2" stroke-linecap="round"/>
  <!-- Arrow head -->
  <path d="M 820 75 L 815 65 M 820 75 L 828 68" fill="none" stroke="#f59e0b" stroke-width="2" stroke-linecap="round"/>

  <!-- Annotation 3: Agent sees what you're working on -->
  <!-- Handwritten text with arrow connecting form to chat -->
  <text x="60" y="565" fill="#60a5fa" font-size="13" font-family="'Brush Script MT', 'Segoe Script', cursive" font-style="italic">
    Agent sees what you're working on
  </text>
  <!-- Curved arrow from form to chat -->
  <path d="M 280 555 Q 320 545, 380 545" fill="none" stroke="#60a5fa" stroke-width="2" stroke-linecap="round" stroke-dasharray="4,2"/>
  <!-- Arrow head -->
  <path d="M 380 545 L 370 540 M 380 545 L 370 550" fill="none" stroke="#60a5fa" stroke-width="2" stroke-linecap="round"/>

  <!-- Annotation 4: Generated artifacts appear here -->
  <text x="700" y="565" fill="#f59e0b" font-size="12" font-family="'Brush Script MT', 'Segoe Script', cursive" font-style="italic">
    Agent-generated content
  </text>
  <!-- Small curved underline -->
  <path d="M 700 568 Q 770 575, 860 568" fill="none" stroke="#f59e0b" stroke-width="1.5" stroke-linecap="round"/>

  <!-- Highlight box around the "Acme's history →" text to show context awareness -->
  <rect x="340" y="327" width="155" height="18" rx="3" fill="none" stroke="#4ade80" stroke-width="1.5" stroke-dasharray="3,2"/>

  <!-- Small annotation arrow from highlight to artifact -->
  <path d="M 495 336 Q 580 300, 690 200" fill="none" stroke="#4ade80" stroke-width="1.5" stroke-linecap="round" stroke-dasharray="4,3"/>
  <!-- Arrow head -->
  <path d="M 690 200 L 680 205 M 690 200 L 685 210" fill="none" stroke="#4ade80" stroke-width="1.5" stroke-linecap="round"/>

</svg>
