<svg xmlns="http://www.w3.org/2000/svg" viewBox="0 0 560 820">
  <defs>
    <marker id="arrow" markerWidth="10" markerHeight="7" refX="9" refY="3.5" orient="auto">
      <polygon points="0 0, 10 3.5, 0 7" fill="#555"/>
    </marker>

    <symbol id="status-complete" viewBox="0 0 16 16">
      <circle cx="8" cy="8" r="7" fill="#0d7d3e"/>
      <path d="M4.5 8 L7 10.5 L11.5 5.5" fill="none" stroke="white" stroke-width="2" stroke-linecap="round" stroke-linejoin="round"/>
    </symbol>
    <symbol id="status-partial" viewBox="0 0 16 16">
      <circle cx="8" cy="8" r="7" fill="none" stroke="#b58900" stroke-width="2"/>
      <path d="M8 1 A7 7 0 0 1 8 15 Z" fill="#b58900"/>
    </symbol>
    <symbol id="status-not-started" viewBox="0 0 16 16">
      <circle cx="8" cy="8" r="7" fill="none" stroke="#c7254e" stroke-width="2"/>
      <path d="M5.5 5.5 L10.5 10.5 M10.5 5.5 L5.5 10.5" fill="none" stroke="#c7254e" stroke-width="2" stroke-linecap="round"/>
    </symbol>
    <symbol id="status-future" viewBox="0 0 16 16">
      <circle cx="8" cy="8" r="7" fill="none" stroke="#94a3b8" stroke-width="2" stroke-dasharray="3,2"/>
    </symbol>
  </defs>

  <!-- Legend -->
  <g transform="translate(280, 25)">
    <use href="#status-complete" x="-180" y="-8" width="16" height="16"/>
    <text x="-160" y="4" font-family="system-ui, sans-serif" font-size="11" fill="#333">Complete</text>
    <use href="#status-partial" x="-70" y="-8" width="16" height="16"/>
    <text x="-50" y="4" font-family="system-ui, sans-serif" font-size="11" fill="#333">Partial</text>
    <use href="#status-future" x="30" y="-8" width="16" height="16"/>
    <text x="50" y="4" font-family="system-ui, sans-serif" font-size="11" fill="#333">Post-Pilot</text>
  </g>

  <!-- DEMO COMPLETE (Starting Point) -->
  <g>
    <rect x="80" y="50" width="400" height="55" rx="10" fill="#f0fdf4" stroke="#22c55e" stroke-width="2"/>
    <text x="280" y="75" text-anchor="middle" font-family="system-ui, sans-serif" font-size="16" font-weight="700" fill="#166534">Q2 2026: Demo Complete</text>
    <text x="280" y="95" text-anchor="middle" font-family="system-ui, sans-serif" font-size="12" fill="#15803d">MCP + Claude Cowork validated</text>
  </g>

  <!-- Two arrows branching to left and right columns -->
  <path d="M 280 105 L 280 125 L 145 125 L 145 150" fill="none" stroke="#555" stroke-width="2" marker-end="url(#arrow)"/>
  <path d="M 280 105 L 280 125 L 415 125 L 415 150" fill="none" stroke="#555" stroke-width="2" marker-end="url(#arrow)"/>

  <!-- TRACK 1: Production UI (Left Column) -->
  <g>
    <rect x="20" y="160" width="250" height="290" rx="10" fill="#eff6ff" stroke="#3b82f6" stroke-width="1.5"/>
    <text x="40" y="185" font-family="system-ui, sans-serif" font-size="14" font-weight="600" fill="#1d4ed8">PRODUCTION UI</text>
    <text x="40" y="203" font-family="system-ui, sans-serif" font-size="11" fill="#3b82f6">Native apps replace Claude Cowork</text>

    <!-- SQH-04 -->
    <g>
      <rect x="35" y="220" width="220" height="50" rx="6" fill="white" stroke="#3b82f6" stroke-width="1.5"/>
      <text x="50" y="243" font-family="system-ui, sans-serif" font-size="13" font-weight="600" fill="#1e293b">SQH-04: UI Kit</text>
      <use href="#status-partial" x="233" y="237" width="16" height="16"/>
    </g>

    <path d="M 145 270 L 145 285" fill="none" stroke="#3b82f6" stroke-width="1.5" marker-end="url(#arrow)"/>

    <!-- SQH-11 -->
    <g>
      <rect x="35" y="290" width="220" height="50" rx="6" fill="white" stroke="#3b82f6" stroke-width="1.5"/>
      <text x="50" y="318" font-family="system-ui, sans-serif" font-size="13" font-weight="600" fill="#1e293b">SQH-11: Frontend Apps</text>
    </g>

    <path d="M 145 340 L 145 355" fill="none" stroke="#3b82f6" stroke-width="1.5" marker-end="url(#arrow)"/>

    <!-- LUM-03 -->
    <g>
      <rect x="35" y="360" width="220" height="50" rx="6" fill="white" stroke="#22c55e" stroke-width="1.5"/>
      <text x="50" y="388" font-family="system-ui, sans-serif" font-size="13" font-weight="600" fill="#1e293b">LUM-03: Customer Dashboard</text>
      <use href="#status-not-started" x="233" y="377" width="16" height="16"/>
    </g>

    <!-- SQH-10 (future) -->
    <g>
      <rect x="35" y="418" width="110" height="25" rx="6" fill="#f8fafc" stroke="#94a3b8" stroke-width="1" stroke-dasharray="4,2"/>
      <text x="45" y="435" font-family="system-ui, sans-serif" font-size="10" fill="#64748b">SQH-10: AI-Gen UI</text>
    </g>
  </g>

  <!-- TRACK 2: Security and Data (Right Column) -->
  <g>
    <rect x="290" y="160" width="250" height="290" rx="10" fill="#fef2f2" stroke="#ef4444" stroke-width="1.5"/>
    <text x="310" y="185" font-family="system-ui, sans-serif" font-size="14" font-weight="600" fill="#dc2626">SECURITY AND DATA</text>
    <text x="310" y="203" font-family="system-ui, sans-serif" font-size="11" fill="#ef4444">Multi-tenant production readiness</text>

    <!-- SQH-02 Extended -->
    <g>
      <rect x="305" y="220" width="220" height="50" rx="6" fill="white" stroke="#ef4444" stroke-width="1.5"/>
      <text x="320" y="238" font-family="system-ui, sans-serif" font-size="12" font-weight="600" fill="#1e293b">SQH-02: Data Access (Ext.)</text>
      <text x="320" y="254" font-family="system-ui, sans-serif" font-size="10" fill="#64748b">F2.8 Access Control + F2.10 Shared DB</text>
      <use href="#status-not-started" x="503" y="237" width="16" height="16"/>
    </g>

    <path d="M 415 270 L 415 285" fill="none" stroke="#ef4444" stroke-width="1.5" marker-end="url(#arrow)"/>

    <!-- SQH-08 -->
    <g>
      <rect x="305" y="290" width="220" height="50" rx="6" fill="white" stroke="#ef4444" stroke-width="1.5"/>
      <text x="320" y="308" font-family="system-ui, sans-serif" font-size="13" font-weight="600" fill="#1e293b">SQH-08: Access Control</text>
      <text x="320" y="324" font-family="system-ui, sans-serif" font-size="10" fill="#64748b">RBAC + Ownership + ABAC</text>
      <use href="#status-not-started" x="503" y="307" width="16" height="16"/>
    </g>

    <!-- LUM-04 (independent, no arrow from above) -->
    <g>
      <rect x="305" y="360" width="220" height="50" rx="6" fill="white" stroke="#22c55e" stroke-width="1.5"/>
      <text x="320" y="383" font-family="system-ui, sans-serif" font-size="13" font-weight="600" fill="#1e293b">LUM-04: Platform Infra</text>
      <text x="320" y="399" font-family="system-ui, sans-serif" font-size="10" fill="#64748b">Audit, notifications, PDF</text>
      <use href="#status-partial" x="503" y="377" width="16" height="16"/>
    </g>
  </g>

  <!-- Center arrow down to Intelligence Layer -->
  <path d="M 280 105 L 280 475" fill="none" stroke="#555" stroke-width="2" marker-end="url(#arrow)"/>

  <!-- TRACK 3: Intelligence Layer (Below, centered) -->
  <g>
    <rect x="75" y="485" width="410" height="140" rx="10" fill="#faf5ff" stroke="#8b5cf6" stroke-width="1.5"/>
    <text x="95" y="510" font-family="system-ui, sans-serif" font-size="14" font-weight="600" fill="#7c3aed">INTELLIGENCE LAYER</text>
    <text x="95" y="528" font-family="system-ui, sans-serif" font-size="11" fill="#8b5cf6">AI-driven insights</text>

    <!-- Row with SQH-06 and LUM-06 -->
    <g>
      <rect x="90" y="545" width="180" height="50" rx="6" fill="white" stroke="#8b5cf6" stroke-width="1.5"/>
      <text x="105" y="565" font-family="system-ui, sans-serif" font-size="12" font-weight="600" fill="#1e293b">SQH-06: AI Services</text>
      <text x="105" y="581" font-family="system-ui, sans-serif" font-size="10" fill="#64748b">F6.4 Anomaly Detection</text>
      <use href="#status-partial" x="248" y="562" width="16" height="16"/>
    </g>

    <g>
      <rect x="290" y="545" width="180" height="50" rx="6" fill="white" stroke="#6b7280" stroke-width="1"/>
      <text x="305" y="565" font-family="system-ui, sans-serif" font-size="12" font-weight="600" fill="#4b5563">LUM-06: Observability</text>
      <text x="305" y="581" font-family="system-ui, sans-serif" font-size="10" fill="#64748b">Metrics and documentation</text>
      <use href="#status-partial" x="448" y="562" width="16" height="16"/>
    </g>

    <!-- LUM-07 (future) -->
    <g>
      <rect x="90" y="602" width="380" height="18" rx="4" fill="#faf5ff" stroke="#8b5cf6" stroke-width="1" stroke-dasharray="4,2"/>
      <text x="105" y="615" font-family="system-ui, sans-serif" font-size="10" fill="#6b21a8">LUM-07: Treatment Intelligence (requires 6+ months data)</text>
    </g>
  </g>

  <!-- INFRASTRUCTURE (Bottom) -->
  <g>
    <rect x="20" y="645" width="520" height="95" rx="10" fill="#f9fafb" stroke="#6b7280" stroke-width="1"/>
    <text x="40" y="668" font-family="system-ui, sans-serif" font-size="14" font-weight="600" fill="#4b5563">INFRASTRUCTURE (Ongoing)</text>

    <!-- Row 1 -->
    <g>
      <rect x="35" y="682" width="90" height="35" rx="6" fill="white" stroke="#6b7280" stroke-width="1"/>
      <text x="45" y="698" font-family="system-ui, sans-serif" font-size="10" font-weight="600" fill="#1e293b">SQH-09</text>
      <text x="45" y="710" font-family="system-ui, sans-serif" font-size="8" fill="#64748b">Object Storage</text>
    </g>

    <g>
      <rect x="135" y="682" width="90" height="35" rx="6" fill="white" stroke="#6b7280" stroke-width="1"/>
      <text x="145" y="698" font-family="system-ui, sans-serif" font-size="10" font-weight="600" fill="#1e293b">SQH-07</text>
      <text x="145" y="710" font-family="system-ui, sans-serif" font-size="8" fill="#64748b">CDC Pipeline</text>
      <use href="#status-partial" x="205" y="690" width="12" height="12"/>
    </g>

    <g>
      <rect x="235" y="682" width="90" height="35" rx="6" fill="white" stroke="#6b7280" stroke-width="1"/>
      <text x="245" y="698" font-family="system-ui, sans-serif" font-size="10" font-weight="600" fill="#1e293b">SQH-05</text>
      <text x="245" y="710" font-family="system-ui, sans-serif" font-size="8" fill="#64748b">Workflow</text>
      <use href="#status-partial" x="305" y="690" width="12" height="12"/>
    </g>

    <g>
      <rect x="335" y="682" width="90" height="35" rx="6" fill="white" stroke="#6b7280" stroke-width="1"/>
      <text x="345" y="698" font-family="system-ui, sans-serif" font-size="10" font-weight="600" fill="#1e293b">SQH-14</text>
      <text x="345" y="710" font-family="system-ui, sans-serif" font-size="8" fill="#64748b">Tech Debt</text>
    </g>

    <g>
      <rect x="435" y="682" width="90" height="35" rx="6" fill="white" stroke="#22c55e" stroke-width="1"/>
      <text x="445" y="698" font-family="system-ui, sans-serif" font-size="10" font-weight="600" fill="#1e293b">LUM-05</text>
      <text x="445" y="710" font-family="system-ui, sans-serif" font-size="8" fill="#64748b">Field Ops</text>
    </g>

    <!-- Row 2 (future items) -->
    <g>
      <rect x="35" y="722" width="100" height="14" rx="4" fill="#f8fafc" stroke="#94a3b8" stroke-width="1" stroke-dasharray="3,2"/>
      <text x="45" y="732" font-family="system-ui, sans-serif" font-size="8" fill="#94a3b8">SQH-13: Extended DB</text>
    </g>
  </g>

  <!-- Timeline (simplified) -->
  <g>
    <line x1="40" y1="770" x2="520" y2="770" stroke="#e2e8f0" stroke-width="2"/>
    <circle cx="80" cy="770" r="6" fill="#22c55e"/>
    <text x="80" y="790" text-anchor="middle" font-family="system-ui, sans-serif" font-size="11" font-weight="600" fill="#166534">Q2 2026</text>
    <text x="80" y="805" text-anchor="middle" font-family="system-ui, sans-serif" font-size="10" fill="#64748b">Demo</text>
  </g>

  <!-- Footer -->
  <text x="280" y="820" text-anchor="middle" font-family="system-ui, sans-serif" font-size="10" fill="#94a3b8">SquareHead Platform (14 EPICs) + Luminous Product (7 EPICs)</text>
</svg>
